<svg width="30" height="30" viewBox="0 0 30 30" fill="none" xmlns="http://www.w3.org/2000/svg">
<path d="M30 15C30 6.71344 23.2809 0 15 0C6.71344 0 0 6.71344 0 15C0 22.485 5.48344 28.6912 12.6562 29.8153V19.3369H8.84719V15.0009H12.6562V11.6944C12.6562 7.93594 14.8922 5.86031 18.3197 5.86031C19.9613 5.86031 21.6797 6.15281 21.6797 6.15281V9.84375H19.785C17.925 9.84375 17.3438 11.0016 17.3438 12.1875V15H21.5034L20.835 19.3359H17.3438V29.8144C24.5109 28.6903 30 22.4841 30 14.9991V15Z" fill="white"/>
</svg>
