<svg width="41" height="41" viewBox="0 0 41 41" fill="none" xmlns="http://www.w3.org/2000/svg">
<path d="M28.7077 14.1373C29.7266 14.1373 30.5527 13.3112 30.5527 12.2923C30.5527 11.2733 29.7266 10.4473 28.7077 10.4473C27.6887 10.4473 26.8627 11.2733 26.8627 12.2923C26.8627 13.3112 27.6887 14.1373 28.7077 14.1373Z" fill="white"/>
<path d="M20.4999 12.605C18.9384 12.605 17.412 13.068 16.1137 13.9355C14.8153 14.8031 13.8034 16.0361 13.2058 17.4787C12.6083 18.9214 12.4519 20.5088 12.7566 22.0403C13.0612 23.5718 13.8131 24.9785 14.9173 26.0827C16.0214 27.1868 17.4282 27.9388 18.9597 28.2434C20.4912 28.548 22.0786 28.3917 23.5212 27.7941C24.9639 27.1966 26.1969 26.1846 27.0644 24.8863C27.9319 23.588 28.395 22.0615 28.395 20.5C28.395 18.4061 27.5632 16.398 26.0826 14.9174C24.602 13.4368 22.5938 12.605 20.4999 12.605ZM20.4999 25.625C19.4863 25.625 18.4954 25.3245 17.6526 24.7613C16.8098 24.1982 16.1529 23.3978 15.765 22.4613C15.3771 21.5248 15.2757 20.4944 15.4734 19.5002C15.6711 18.5061 16.1593 17.5929 16.876 16.8761C17.5927 16.1594 18.5059 15.6713 19.5001 15.4735C20.4942 15.2758 21.5247 15.3773 22.4612 15.7652C23.3976 16.1531 24.1981 16.8099 24.7612 17.6527C25.3243 18.4955 25.6249 19.4864 25.6249 20.5C25.6249 21.8593 25.085 23.1628 24.1238 24.124C23.1627 25.0851 21.8592 25.625 20.4999 25.625Z" fill="white"/>
<path d="M20.5 7.89506C24.6051 7.89506 25.092 7.91044 26.7128 7.98475C27.6876 7.99632 28.6532 8.17531 29.5674 8.51391C30.2307 8.76976 30.833 9.16164 31.3357 9.66431C31.8384 10.167 32.2302 10.7693 32.4861 11.4326C32.8247 12.3468 33.0037 13.3124 33.0152 14.2872C33.0896 15.908 33.1049 16.3949 33.1049 20.5013C33.1049 24.6077 33.0896 25.092 33.0152 26.7128C33.0037 27.6876 32.8247 28.6532 32.4861 29.5674C32.2302 30.2307 31.8384 30.833 31.3357 31.3357C30.833 31.8384 30.2307 32.2302 29.5674 32.4861C28.6532 32.8247 27.6876 33.0037 26.7128 33.0152C25.092 33.0896 24.6051 33.1049 20.5 33.1049C16.3949 33.1049 15.908 33.0896 14.2872 33.0152C13.3124 33.0037 12.3468 32.8247 11.4326 32.4861C10.7693 32.2302 10.167 31.8384 9.66431 31.3357C9.16164 30.833 8.76976 30.2307 8.51391 29.5674C8.17531 28.6532 7.99632 27.6876 7.98475 26.7128C7.91044 25.092 7.89506 24.6051 7.89506 20.5C7.89506 16.3949 7.91044 15.908 7.98475 14.2872C7.99632 13.3124 8.17531 12.3468 8.51391 11.4326C8.76976 10.7693 9.16164 10.167 9.66431 9.66431C10.167 9.16164 10.7693 8.76976 11.4326 8.51391C12.3468 8.17531 13.3124 7.99632 14.2872 7.98475C15.908 7.91044 16.3949 7.89506 20.5 7.89506ZM20.5 5.125C16.3244 5.125 15.8004 5.14294 14.1604 5.21725C12.8852 5.243 11.6237 5.48474 10.4294 5.93219C9.40787 6.32719 8.48016 6.93128 7.70572 7.70572C6.93128 8.48016 6.32719 9.40787 5.93219 10.4294C5.48459 11.6241 5.24285 12.8861 5.21725 14.1617C5.14294 15.8017 5.125 16.3231 5.125 20.5C5.125 24.6769 5.14294 25.1996 5.21725 26.8396C5.243 28.1148 5.48474 29.3763 5.93219 30.5706C6.32719 31.5921 6.93128 32.5198 7.70572 33.2943C8.48016 34.0687 9.40787 34.6728 10.4294 35.0678C11.6241 35.5154 12.8861 35.7571 14.1617 35.7827C15.8017 35.8571 16.3244 35.875 20.5 35.875C24.6756 35.875 25.1996 35.8571 26.8396 35.7827C28.1152 35.7571 29.3772 35.5154 30.5719 35.0678C31.5934 34.6728 32.5211 34.0687 33.2956 33.2943C34.07 32.5198 34.6741 31.5921 35.0691 30.5706C35.5163 29.3758 35.7576 28.1138 35.7827 26.8383C35.8571 25.1983 35.875 24.6769 35.875 20.5C35.875 16.3231 35.8571 15.8004 35.7827 14.1604C35.757 12.8852 35.5153 11.6237 35.0678 10.4294C34.6728 9.40787 34.0687 8.48016 33.2943 7.70572C32.5198 6.93128 31.5921 6.32719 30.5706 5.93219C29.3758 5.48503 28.1138 5.24372 26.8383 5.21853C25.1983 5.14166 24.6769 5.125 20.5 5.125Z" fill="white"/>
</svg>
